<mxfile host="Electron" modified="2023-12-30T11:21:23.884Z" agent="Mozilla/5.0 (X11; Linux x86_64) AppleWebKit/537.36 (KHTML, like Gecko) draw.io/22.1.16 Chrome/120.0.6099.109 Electron/28.1.0 Safari/537.36" etag="FWLLLnz-H_nVIg7Vvr1l" version="22.1.16" type="device">
  <diagram id="C5RBs43oDa-KdzZeNtuy" name="Page-1">
    <mxGraphModel dx="1380" dy="841" grid="1" gridSize="10" guides="1" tooltips="1" connect="1" arrows="1" fold="1" page="1" pageScale="1" pageWidth="1169" pageHeight="827" math="0" shadow="0">
      <root>
        <mxCell id="WIyWlLk6GJQsqaUBKTNV-0" />
        <mxCell id="WIyWlLk6GJQsqaUBKTNV-1" parent="WIyWlLk6GJQsqaUBKTNV-0" />
        <mxCell id="3-fhFbrS2XwaX0FWGKN_-157" value="" style="group" vertex="1" connectable="0" parent="WIyWlLk6GJQsqaUBKTNV-1">
          <mxGeometry x="180" y="220" width="823" height="340" as="geometry" />
        </mxCell>
        <mxCell id="3-fhFbrS2XwaX0FWGKN_-46" value="具有" style="shape=rhombus;perimeter=rhombusPerimeter;whiteSpace=wrap;html=1;align=center;fontFamily=Helvetica;fontSize=11;fontColor=default;" vertex="1" parent="3-fhFbrS2XwaX0FWGKN_-157">
          <mxGeometry x="193" y="143" width="50" height="30" as="geometry" />
        </mxCell>
        <mxCell id="3-fhFbrS2XwaX0FWGKN_-101" value="" style="group" vertex="1" connectable="0" parent="3-fhFbrS2XwaX0FWGKN_-157">
          <mxGeometry width="310" height="100" as="geometry" />
        </mxCell>
        <mxCell id="3-fhFbrS2XwaX0FWGKN_-40" value="权限等级" style="ellipse;whiteSpace=wrap;html=1;align=center;fontStyle=4;fontFamily=Helvetica;fontSize=11;fontColor=default;" vertex="1" parent="3-fhFbrS2XwaX0FWGKN_-101">
          <mxGeometry width="70" height="30" as="geometry" />
        </mxCell>
        <mxCell id="3-fhFbrS2XwaX0FWGKN_-41" value="权限名" style="ellipse;whiteSpace=wrap;html=1;align=center;fontFamily=Helvetica;fontSize=11;fontColor=default;" vertex="1" parent="3-fhFbrS2XwaX0FWGKN_-101">
          <mxGeometry x="85" width="60" height="30" as="geometry" />
        </mxCell>
        <mxCell id="3-fhFbrS2XwaX0FWGKN_-42" value="用户列表" style="ellipse;shape=doubleEllipse;margin=3;whiteSpace=wrap;html=1;align=center;fontFamily=Helvetica;fontSize=11;fontColor=default;flipV=1;" vertex="1" parent="3-fhFbrS2XwaX0FWGKN_-101">
          <mxGeometry x="160" width="70" height="30" as="geometry" />
        </mxCell>
        <mxCell id="3-fhFbrS2XwaX0FWGKN_-38" value="权限" style="whiteSpace=wrap;html=1;align=center;fontFamily=Helvetica;fontSize=11;fontColor=default;flipV=1;" vertex="1" parent="3-fhFbrS2XwaX0FWGKN_-101">
          <mxGeometry x="130" y="70" width="50" height="30" as="geometry" />
        </mxCell>
        <mxCell id="3-fhFbrS2XwaX0FWGKN_-43" value="" style="edgeStyle=none;shape=connector;rounded=0;orthogonalLoop=1;jettySize=auto;html=1;labelBackgroundColor=default;strokeColor=default;align=center;verticalAlign=middle;fontFamily=Helvetica;fontSize=11;fontColor=default;endArrow=none;" edge="1" parent="3-fhFbrS2XwaX0FWGKN_-101" source="3-fhFbrS2XwaX0FWGKN_-40" target="3-fhFbrS2XwaX0FWGKN_-38">
          <mxGeometry relative="1" as="geometry" />
        </mxCell>
        <mxCell id="3-fhFbrS2XwaX0FWGKN_-44" value="" style="edgeStyle=none;shape=connector;rounded=0;orthogonalLoop=1;jettySize=auto;html=1;labelBackgroundColor=default;strokeColor=default;align=center;verticalAlign=middle;fontFamily=Helvetica;fontSize=11;fontColor=default;endArrow=none;" edge="1" parent="3-fhFbrS2XwaX0FWGKN_-101" source="3-fhFbrS2XwaX0FWGKN_-41" target="3-fhFbrS2XwaX0FWGKN_-38">
          <mxGeometry relative="1" as="geometry" />
        </mxCell>
        <mxCell id="3-fhFbrS2XwaX0FWGKN_-45" value="" style="edgeStyle=none;shape=connector;rounded=0;orthogonalLoop=1;jettySize=auto;html=1;labelBackgroundColor=default;strokeColor=default;align=center;verticalAlign=middle;fontFamily=Helvetica;fontSize=11;fontColor=default;endArrow=none;" edge="1" parent="3-fhFbrS2XwaX0FWGKN_-101" source="3-fhFbrS2XwaX0FWGKN_-42" target="3-fhFbrS2XwaX0FWGKN_-38">
          <mxGeometry relative="1" as="geometry" />
        </mxCell>
        <mxCell id="3-fhFbrS2XwaX0FWGKN_-99" value="" style="edgeStyle=none;shape=connector;rounded=0;orthogonalLoop=1;jettySize=auto;html=1;labelBackgroundColor=default;strokeColor=default;align=center;verticalAlign=middle;fontFamily=Helvetica;fontSize=11;fontColor=default;endArrow=none;" edge="1" parent="3-fhFbrS2XwaX0FWGKN_-101" source="3-fhFbrS2XwaX0FWGKN_-98" target="3-fhFbrS2XwaX0FWGKN_-38">
          <mxGeometry relative="1" as="geometry" />
        </mxCell>
        <mxCell id="3-fhFbrS2XwaX0FWGKN_-98" value="用户数目" style="ellipse;whiteSpace=wrap;html=1;align=center;dashed=1;fontFamily=Helvetica;fontSize=11;fontColor=default;" vertex="1" parent="3-fhFbrS2XwaX0FWGKN_-101">
          <mxGeometry x="240" width="70" height="30" as="geometry" />
        </mxCell>
        <mxCell id="3-fhFbrS2XwaX0FWGKN_-95" value="" style="edgeStyle=none;shape=link;rounded=0;orthogonalLoop=1;jettySize=auto;html=1;labelBackgroundColor=default;strokeColor=default;align=center;verticalAlign=middle;fontFamily=Helvetica;fontSize=11;fontColor=default;endArrow=none;" edge="1" parent="3-fhFbrS2XwaX0FWGKN_-157" source="3-fhFbrS2XwaX0FWGKN_-0" target="3-fhFbrS2XwaX0FWGKN_-46">
          <mxGeometry relative="1" as="geometry" />
        </mxCell>
        <mxCell id="3-fhFbrS2XwaX0FWGKN_-97" value="N" style="edgeLabel;html=1;align=center;verticalAlign=middle;resizable=0;points=[];fontSize=11;fontFamily=Helvetica;fontColor=default;" vertex="1" connectable="0" parent="3-fhFbrS2XwaX0FWGKN_-95">
          <mxGeometry relative="1" as="geometry">
            <mxPoint x="-10" y="-24" as="offset" />
          </mxGeometry>
        </mxCell>
        <mxCell id="3-fhFbrS2XwaX0FWGKN_-94" value="" style="edgeStyle=none;shape=connector;rounded=0;orthogonalLoop=1;jettySize=auto;html=1;labelBackgroundColor=default;strokeColor=default;align=center;verticalAlign=middle;fontFamily=Helvetica;fontSize=11;fontColor=default;endArrow=none;" edge="1" parent="3-fhFbrS2XwaX0FWGKN_-157" source="3-fhFbrS2XwaX0FWGKN_-38" target="3-fhFbrS2XwaX0FWGKN_-46">
          <mxGeometry relative="1" as="geometry" />
        </mxCell>
        <mxCell id="3-fhFbrS2XwaX0FWGKN_-96" value="1" style="edgeLabel;html=1;align=center;verticalAlign=middle;resizable=0;points=[];fontSize=11;fontFamily=Helvetica;fontColor=default;" vertex="1" connectable="0" parent="3-fhFbrS2XwaX0FWGKN_-94">
          <mxGeometry relative="1" as="geometry">
            <mxPoint x="6" y="21" as="offset" />
          </mxGeometry>
        </mxCell>
        <mxCell id="3-fhFbrS2XwaX0FWGKN_-126" value="" style="group" vertex="1" connectable="0" parent="3-fhFbrS2XwaX0FWGKN_-157">
          <mxGeometry x="593" width="230" height="340" as="geometry" />
        </mxCell>
        <mxCell id="3-fhFbrS2XwaX0FWGKN_-1" value="书籍" style="whiteSpace=wrap;html=1;align=center;" vertex="1" parent="3-fhFbrS2XwaX0FWGKN_-126">
          <mxGeometry x="10" y="162" width="50" height="30" as="geometry" />
        </mxCell>
        <mxCell id="3-fhFbrS2XwaX0FWGKN_-8" value="" style="edgeStyle=none;shape=connector;rounded=0;orthogonalLoop=1;jettySize=auto;html=1;labelBackgroundColor=default;strokeColor=default;align=center;verticalAlign=middle;fontFamily=Helvetica;fontSize=11;fontColor=default;endArrow=none;" edge="1" parent="3-fhFbrS2XwaX0FWGKN_-126" source="3-fhFbrS2XwaX0FWGKN_-3" target="3-fhFbrS2XwaX0FWGKN_-1">
          <mxGeometry relative="1" as="geometry" />
        </mxCell>
        <mxCell id="3-fhFbrS2XwaX0FWGKN_-3" value="书籍 ID" style="ellipse;whiteSpace=wrap;html=1;align=center;fontStyle=4;" vertex="1" parent="3-fhFbrS2XwaX0FWGKN_-126">
          <mxGeometry x="170" width="60" height="30" as="geometry" />
        </mxCell>
        <mxCell id="3-fhFbrS2XwaX0FWGKN_-120" value="" style="edgeStyle=none;shape=connector;rounded=0;orthogonalLoop=1;jettySize=auto;html=1;labelBackgroundColor=default;strokeColor=default;align=center;verticalAlign=middle;fontFamily=Helvetica;fontSize=11;fontColor=default;endArrow=none;" edge="1" parent="3-fhFbrS2XwaX0FWGKN_-126" source="3-fhFbrS2XwaX0FWGKN_-102" target="3-fhFbrS2XwaX0FWGKN_-1">
          <mxGeometry relative="1" as="geometry" />
        </mxCell>
        <mxCell id="3-fhFbrS2XwaX0FWGKN_-102" value="ISBN" style="ellipse;whiteSpace=wrap;html=1;align=center;fontFamily=Helvetica;fontSize=11;fontColor=default;" vertex="1" parent="3-fhFbrS2XwaX0FWGKN_-126">
          <mxGeometry x="180" y="191" width="50" height="30" as="geometry" />
        </mxCell>
        <mxCell id="3-fhFbrS2XwaX0FWGKN_-115" value="" style="edgeStyle=none;shape=connector;rounded=0;orthogonalLoop=1;jettySize=auto;html=1;labelBackgroundColor=default;strokeColor=default;align=center;verticalAlign=middle;fontFamily=Helvetica;fontSize=11;fontColor=default;endArrow=none;" edge="1" parent="3-fhFbrS2XwaX0FWGKN_-126" source="3-fhFbrS2XwaX0FWGKN_-103" target="3-fhFbrS2XwaX0FWGKN_-1">
          <mxGeometry relative="1" as="geometry" />
        </mxCell>
        <mxCell id="3-fhFbrS2XwaX0FWGKN_-103" value="书名" style="ellipse;whiteSpace=wrap;html=1;align=center;fontFamily=Helvetica;fontSize=11;fontColor=default;" vertex="1" parent="3-fhFbrS2XwaX0FWGKN_-126">
          <mxGeometry x="180" y="36" width="50" height="30" as="geometry" />
        </mxCell>
        <mxCell id="3-fhFbrS2XwaX0FWGKN_-116" value="" style="edgeStyle=none;shape=connector;rounded=0;orthogonalLoop=1;jettySize=auto;html=1;labelBackgroundColor=default;strokeColor=default;align=center;verticalAlign=middle;fontFamily=Helvetica;fontSize=11;fontColor=default;endArrow=none;" edge="1" parent="3-fhFbrS2XwaX0FWGKN_-126" source="3-fhFbrS2XwaX0FWGKN_-104" target="3-fhFbrS2XwaX0FWGKN_-1">
          <mxGeometry relative="1" as="geometry" />
        </mxCell>
        <mxCell id="3-fhFbrS2XwaX0FWGKN_-104" value="作者" style="whiteSpace=wrap;html=1;align=center;fontFamily=Helvetica;fontSize=11;fontColor=default;shape=doubleEllipse;perimeter=ellipsePerimeter;margin=3;" vertex="1" parent="3-fhFbrS2XwaX0FWGKN_-126">
          <mxGeometry x="180" y="75" width="50" height="30" as="geometry" />
        </mxCell>
        <mxCell id="3-fhFbrS2XwaX0FWGKN_-117" value="" style="edgeStyle=none;shape=connector;rounded=0;orthogonalLoop=1;jettySize=auto;html=1;labelBackgroundColor=default;strokeColor=default;align=center;verticalAlign=middle;fontFamily=Helvetica;fontSize=11;fontColor=default;endArrow=none;" edge="1" parent="3-fhFbrS2XwaX0FWGKN_-126" source="3-fhFbrS2XwaX0FWGKN_-105" target="3-fhFbrS2XwaX0FWGKN_-1">
          <mxGeometry relative="1" as="geometry" />
        </mxCell>
        <mxCell id="3-fhFbrS2XwaX0FWGKN_-105" value="出版社" style="ellipse;whiteSpace=wrap;html=1;align=center;fontFamily=Helvetica;fontSize=11;fontColor=default;" vertex="1" parent="3-fhFbrS2XwaX0FWGKN_-126">
          <mxGeometry x="170" y="113" width="60" height="30" as="geometry" />
        </mxCell>
        <mxCell id="3-fhFbrS2XwaX0FWGKN_-122" value="" style="edgeStyle=none;shape=connector;rounded=0;orthogonalLoop=1;jettySize=auto;html=1;labelBackgroundColor=default;strokeColor=default;align=center;verticalAlign=middle;fontFamily=Helvetica;fontSize=11;fontColor=default;endArrow=none;" edge="1" parent="3-fhFbrS2XwaX0FWGKN_-126" source="3-fhFbrS2XwaX0FWGKN_-106" target="3-fhFbrS2XwaX0FWGKN_-1">
          <mxGeometry relative="1" as="geometry" />
        </mxCell>
        <mxCell id="3-fhFbrS2XwaX0FWGKN_-106" value="分类" style="ellipse;whiteSpace=wrap;html=1;align=center;fontFamily=Helvetica;fontSize=11;fontColor=default;" vertex="1" parent="3-fhFbrS2XwaX0FWGKN_-126">
          <mxGeometry x="180" y="152" width="50" height="30" as="geometry" />
        </mxCell>
        <mxCell id="3-fhFbrS2XwaX0FWGKN_-121" value="" style="edgeStyle=none;shape=connector;rounded=0;orthogonalLoop=1;jettySize=auto;html=1;labelBackgroundColor=default;strokeColor=default;align=center;verticalAlign=middle;fontFamily=Helvetica;fontSize=11;fontColor=default;endArrow=none;" edge="1" parent="3-fhFbrS2XwaX0FWGKN_-126" source="3-fhFbrS2XwaX0FWGKN_-107" target="3-fhFbrS2XwaX0FWGKN_-1">
          <mxGeometry relative="1" as="geometry" />
        </mxCell>
        <mxCell id="3-fhFbrS2XwaX0FWGKN_-107" value="架号" style="ellipse;whiteSpace=wrap;html=1;align=center;fontFamily=Helvetica;fontSize=11;fontColor=default;" vertex="1" parent="3-fhFbrS2XwaX0FWGKN_-126">
          <mxGeometry x="180" y="268" width="50" height="30" as="geometry" />
        </mxCell>
        <mxCell id="3-fhFbrS2XwaX0FWGKN_-123" value="" style="edgeStyle=none;shape=connector;rounded=0;orthogonalLoop=1;jettySize=auto;html=1;labelBackgroundColor=default;strokeColor=default;align=center;verticalAlign=middle;fontFamily=Helvetica;fontSize=11;fontColor=default;endArrow=none;" edge="1" parent="3-fhFbrS2XwaX0FWGKN_-126" source="3-fhFbrS2XwaX0FWGKN_-108" target="3-fhFbrS2XwaX0FWGKN_-1">
          <mxGeometry relative="1" as="geometry" />
        </mxCell>
        <mxCell id="3-fhFbrS2XwaX0FWGKN_-108" value="书籍状态" style="ellipse;whiteSpace=wrap;html=1;align=center;fontFamily=Helvetica;fontSize=11;fontColor=default;" vertex="1" parent="3-fhFbrS2XwaX0FWGKN_-126">
          <mxGeometry x="160" y="310" width="70" height="30" as="geometry" />
        </mxCell>
        <mxCell id="3-fhFbrS2XwaX0FWGKN_-119" value="" style="edgeStyle=none;shape=connector;rounded=0;orthogonalLoop=1;jettySize=auto;html=1;labelBackgroundColor=default;strokeColor=default;align=center;verticalAlign=middle;fontFamily=Helvetica;fontSize=11;fontColor=default;endArrow=none;" edge="1" parent="3-fhFbrS2XwaX0FWGKN_-126" source="3-fhFbrS2XwaX0FWGKN_-118" target="3-fhFbrS2XwaX0FWGKN_-1">
          <mxGeometry relative="1" as="geometry" />
        </mxCell>
        <mxCell id="3-fhFbrS2XwaX0FWGKN_-118" value="上架时间" style="ellipse;whiteSpace=wrap;html=1;align=center;fontFamily=Helvetica;fontSize=11;fontColor=default;" vertex="1" parent="3-fhFbrS2XwaX0FWGKN_-126">
          <mxGeometry x="160" y="230" width="70" height="30" as="geometry" />
        </mxCell>
        <mxCell id="3-fhFbrS2XwaX0FWGKN_-131" value="" style="edgeStyle=none;shape=connector;rounded=0;orthogonalLoop=1;jettySize=auto;html=1;labelBackgroundColor=default;strokeColor=default;align=center;verticalAlign=middle;fontFamily=Helvetica;fontSize=11;fontColor=default;endArrow=none;" edge="1" parent="3-fhFbrS2XwaX0FWGKN_-157" source="3-fhFbrS2XwaX0FWGKN_-127" target="3-fhFbrS2XwaX0FWGKN_-1">
          <mxGeometry relative="1" as="geometry" />
        </mxCell>
        <mxCell id="3-fhFbrS2XwaX0FWGKN_-150" value="N" style="edgeLabel;html=1;align=center;verticalAlign=middle;resizable=0;points=[];fontSize=11;fontFamily=Helvetica;fontColor=default;" vertex="1" connectable="0" parent="3-fhFbrS2XwaX0FWGKN_-131">
          <mxGeometry x="-0.3142" y="1" relative="1" as="geometry">
            <mxPoint x="-22" y="-7" as="offset" />
          </mxGeometry>
        </mxCell>
        <mxCell id="3-fhFbrS2XwaX0FWGKN_-151" value="" style="group" vertex="1" connectable="0" parent="3-fhFbrS2XwaX0FWGKN_-157">
          <mxGeometry y="210" width="683" height="130" as="geometry" />
        </mxCell>
        <mxCell id="3-fhFbrS2XwaX0FWGKN_-110" value="账户有效性" style="ellipse;whiteSpace=wrap;html=1;align=center;fontFamily=Helvetica;fontSize=11;fontColor=default;" vertex="1" parent="3-fhFbrS2XwaX0FWGKN_-151">
          <mxGeometry x="603" y="90" width="80" height="30" as="geometry" />
        </mxCell>
        <mxCell id="3-fhFbrS2XwaX0FWGKN_-109" value="注册时间" style="ellipse;whiteSpace=wrap;html=1;align=center;fontFamily=Helvetica;fontSize=11;fontColor=default;" vertex="1" parent="3-fhFbrS2XwaX0FWGKN_-151">
          <mxGeometry x="516" y="90" width="70" height="30" as="geometry" />
        </mxCell>
        <mxCell id="3-fhFbrS2XwaX0FWGKN_-113" value="" style="edgeStyle=none;shape=connector;rounded=0;orthogonalLoop=1;jettySize=auto;html=1;labelBackgroundColor=default;strokeColor=default;align=center;verticalAlign=middle;fontFamily=Helvetica;fontSize=11;fontColor=default;endArrow=none;" edge="1" parent="3-fhFbrS2XwaX0FWGKN_-151" source="3-fhFbrS2XwaX0FWGKN_-110" target="3-fhFbrS2XwaX0FWGKN_-0">
          <mxGeometry relative="1" as="geometry" />
        </mxCell>
        <mxCell id="3-fhFbrS2XwaX0FWGKN_-112" value="" style="edgeStyle=none;shape=connector;rounded=0;orthogonalLoop=1;jettySize=auto;html=1;labelBackgroundColor=default;strokeColor=default;align=center;verticalAlign=middle;fontFamily=Helvetica;fontSize=11;fontColor=default;endArrow=none;" edge="1" parent="3-fhFbrS2XwaX0FWGKN_-151" source="3-fhFbrS2XwaX0FWGKN_-109" target="3-fhFbrS2XwaX0FWGKN_-0">
          <mxGeometry relative="1" as="geometry" />
        </mxCell>
        <mxCell id="3-fhFbrS2XwaX0FWGKN_-4" value="用户 ID" style="ellipse;whiteSpace=wrap;html=1;align=center;fontStyle=4;flipV=1;direction=west;" vertex="1" parent="3-fhFbrS2XwaX0FWGKN_-151">
          <mxGeometry width="60" height="30" as="geometry" />
        </mxCell>
        <mxCell id="3-fhFbrS2XwaX0FWGKN_-9" value="姓名" style="ellipse;whiteSpace=wrap;html=1;align=center;fontFamily=Helvetica;fontSize=11;fontColor=default;flipV=1;direction=west;" vertex="1" parent="3-fhFbrS2XwaX0FWGKN_-151">
          <mxGeometry x="47" y="80" width="50" height="30" as="geometry" />
        </mxCell>
        <mxCell id="3-fhFbrS2XwaX0FWGKN_-14" value="" style="edgeStyle=none;shape=connector;rounded=0;orthogonalLoop=1;jettySize=auto;html=1;labelBackgroundColor=default;strokeColor=default;align=center;verticalAlign=middle;fontFamily=Helvetica;fontSize=11;fontColor=default;endArrow=none;" edge="1" parent="3-fhFbrS2XwaX0FWGKN_-151" source="3-fhFbrS2XwaX0FWGKN_-10" target="3-fhFbrS2XwaX0FWGKN_-9">
          <mxGeometry relative="1" as="geometry" />
        </mxCell>
        <mxCell id="3-fhFbrS2XwaX0FWGKN_-10" value="名" style="ellipse;whiteSpace=wrap;html=1;align=center;fontFamily=Helvetica;fontSize=11;fontColor=default;flipV=1;direction=west;" vertex="1" parent="3-fhFbrS2XwaX0FWGKN_-151">
          <mxGeometry x="113" y="100" width="30" height="30" as="geometry" />
        </mxCell>
        <mxCell id="3-fhFbrS2XwaX0FWGKN_-15" value="" style="edgeStyle=none;shape=connector;rounded=0;orthogonalLoop=1;jettySize=auto;html=1;labelBackgroundColor=default;strokeColor=default;align=center;verticalAlign=middle;fontFamily=Helvetica;fontSize=11;fontColor=default;endArrow=none;" edge="1" parent="3-fhFbrS2XwaX0FWGKN_-151" source="3-fhFbrS2XwaX0FWGKN_-11" target="3-fhFbrS2XwaX0FWGKN_-9">
          <mxGeometry relative="1" as="geometry" />
        </mxCell>
        <mxCell id="3-fhFbrS2XwaX0FWGKN_-11" value="姓" style="ellipse;whiteSpace=wrap;html=1;align=center;fontFamily=Helvetica;fontSize=11;fontColor=default;flipV=1;direction=west;" vertex="1" parent="3-fhFbrS2XwaX0FWGKN_-151">
          <mxGeometry y="100" width="30" height="30" as="geometry" />
        </mxCell>
        <mxCell id="3-fhFbrS2XwaX0FWGKN_-18" value="出生日期" style="ellipse;whiteSpace=wrap;html=1;align=center;fontFamily=Helvetica;fontSize=11;fontColor=default;flipV=1;direction=west;" vertex="1" parent="3-fhFbrS2XwaX0FWGKN_-151">
          <mxGeometry x="220" y="90" width="70" height="30" as="geometry" />
        </mxCell>
        <mxCell id="3-fhFbrS2XwaX0FWGKN_-19" value="账户密码" style="ellipse;whiteSpace=wrap;html=1;align=center;fontFamily=Helvetica;fontSize=11;fontColor=default;flipV=1;direction=west;" vertex="1" parent="3-fhFbrS2XwaX0FWGKN_-151">
          <mxGeometry y="40" width="70" height="30" as="geometry" />
        </mxCell>
        <mxCell id="3-fhFbrS2XwaX0FWGKN_-24" value="年龄" style="ellipse;whiteSpace=wrap;html=1;align=center;dashed=1;fontFamily=Helvetica;fontSize=11;fontColor=default;flipV=1;direction=west;" vertex="1" parent="3-fhFbrS2XwaX0FWGKN_-151">
          <mxGeometry x="306" y="90" width="50" height="30" as="geometry" />
        </mxCell>
        <mxCell id="3-fhFbrS2XwaX0FWGKN_-26" value="性别" style="ellipse;whiteSpace=wrap;html=1;align=center;fontFamily=Helvetica;fontSize=11;fontColor=default;flipV=1;direction=west;" vertex="1" parent="3-fhFbrS2XwaX0FWGKN_-151">
          <mxGeometry x="153" y="90" width="50" height="30" as="geometry" />
        </mxCell>
        <mxCell id="3-fhFbrS2XwaX0FWGKN_-28" value="手机号" style="ellipse;whiteSpace=wrap;html=1;align=center;fontFamily=Helvetica;fontSize=11;fontColor=default;flipV=1;direction=west;" vertex="1" parent="3-fhFbrS2XwaX0FWGKN_-151">
          <mxGeometry x="373" y="90" width="60" height="30" as="geometry" />
        </mxCell>
        <mxCell id="3-fhFbrS2XwaX0FWGKN_-29" value="邮箱" style="ellipse;whiteSpace=wrap;html=1;align=center;fontFamily=Helvetica;fontSize=11;fontColor=default;flipV=1;direction=west;" vertex="1" parent="3-fhFbrS2XwaX0FWGKN_-151">
          <mxGeometry x="450" y="90" width="50" height="30" as="geometry" />
        </mxCell>
        <mxCell id="3-fhFbrS2XwaX0FWGKN_-0" value="用户" style="whiteSpace=wrap;html=1;align=center;flipV=1;direction=west;" vertex="1" parent="3-fhFbrS2XwaX0FWGKN_-151">
          <mxGeometry x="278" y="10" width="50" height="30" as="geometry" />
        </mxCell>
        <mxCell id="3-fhFbrS2XwaX0FWGKN_-7" value="" style="edgeStyle=none;shape=connector;rounded=0;orthogonalLoop=1;jettySize=auto;html=1;labelBackgroundColor=default;strokeColor=default;align=center;verticalAlign=middle;fontFamily=Helvetica;fontSize=11;fontColor=default;endArrow=none;" edge="1" parent="3-fhFbrS2XwaX0FWGKN_-151" source="3-fhFbrS2XwaX0FWGKN_-4" target="3-fhFbrS2XwaX0FWGKN_-0">
          <mxGeometry relative="1" as="geometry" />
        </mxCell>
        <mxCell id="3-fhFbrS2XwaX0FWGKN_-17" value="" style="edgeStyle=none;shape=connector;rounded=0;orthogonalLoop=1;jettySize=auto;html=1;labelBackgroundColor=default;strokeColor=default;align=center;verticalAlign=middle;fontFamily=Helvetica;fontSize=11;fontColor=default;endArrow=none;" edge="1" parent="3-fhFbrS2XwaX0FWGKN_-151" source="3-fhFbrS2XwaX0FWGKN_-9" target="3-fhFbrS2XwaX0FWGKN_-0">
          <mxGeometry relative="1" as="geometry" />
        </mxCell>
        <mxCell id="3-fhFbrS2XwaX0FWGKN_-23" value="" style="edgeStyle=none;shape=connector;rounded=0;orthogonalLoop=1;jettySize=auto;html=1;labelBackgroundColor=default;strokeColor=default;align=center;verticalAlign=middle;fontFamily=Helvetica;fontSize=11;fontColor=default;endArrow=none;" edge="1" parent="3-fhFbrS2XwaX0FWGKN_-151" source="3-fhFbrS2XwaX0FWGKN_-18" target="3-fhFbrS2XwaX0FWGKN_-0">
          <mxGeometry relative="1" as="geometry" />
        </mxCell>
        <mxCell id="3-fhFbrS2XwaX0FWGKN_-22" value="" style="edgeStyle=none;shape=connector;rounded=0;orthogonalLoop=1;jettySize=auto;html=1;labelBackgroundColor=default;strokeColor=default;align=center;verticalAlign=middle;fontFamily=Helvetica;fontSize=11;fontColor=default;endArrow=none;" edge="1" parent="3-fhFbrS2XwaX0FWGKN_-151" source="3-fhFbrS2XwaX0FWGKN_-19" target="3-fhFbrS2XwaX0FWGKN_-0">
          <mxGeometry relative="1" as="geometry" />
        </mxCell>
        <mxCell id="3-fhFbrS2XwaX0FWGKN_-25" value="" style="edgeStyle=none;shape=connector;rounded=0;orthogonalLoop=1;jettySize=auto;html=1;labelBackgroundColor=default;strokeColor=default;align=center;verticalAlign=middle;fontFamily=Helvetica;fontSize=11;fontColor=default;endArrow=none;" edge="1" parent="3-fhFbrS2XwaX0FWGKN_-151" source="3-fhFbrS2XwaX0FWGKN_-24" target="3-fhFbrS2XwaX0FWGKN_-0">
          <mxGeometry relative="1" as="geometry" />
        </mxCell>
        <mxCell id="3-fhFbrS2XwaX0FWGKN_-27" value="" style="edgeStyle=none;shape=connector;rounded=0;orthogonalLoop=1;jettySize=auto;html=1;labelBackgroundColor=default;strokeColor=default;align=center;verticalAlign=middle;fontFamily=Helvetica;fontSize=11;fontColor=default;endArrow=none;" edge="1" parent="3-fhFbrS2XwaX0FWGKN_-151" source="3-fhFbrS2XwaX0FWGKN_-26" target="3-fhFbrS2XwaX0FWGKN_-0">
          <mxGeometry relative="1" as="geometry" />
        </mxCell>
        <mxCell id="3-fhFbrS2XwaX0FWGKN_-30" value="" style="edgeStyle=none;shape=connector;rounded=0;orthogonalLoop=1;jettySize=auto;html=1;labelBackgroundColor=default;strokeColor=default;align=center;verticalAlign=middle;fontFamily=Helvetica;fontSize=11;fontColor=default;endArrow=none;" edge="1" parent="3-fhFbrS2XwaX0FWGKN_-151" source="3-fhFbrS2XwaX0FWGKN_-28" target="3-fhFbrS2XwaX0FWGKN_-0">
          <mxGeometry relative="1" as="geometry" />
        </mxCell>
        <mxCell id="3-fhFbrS2XwaX0FWGKN_-32" value="" style="edgeStyle=none;shape=connector;rounded=0;orthogonalLoop=1;jettySize=auto;html=1;labelBackgroundColor=default;strokeColor=default;align=center;verticalAlign=middle;fontFamily=Helvetica;fontSize=11;fontColor=default;endArrow=none;" edge="1" parent="3-fhFbrS2XwaX0FWGKN_-151" source="3-fhFbrS2XwaX0FWGKN_-29" target="3-fhFbrS2XwaX0FWGKN_-0">
          <mxGeometry relative="1" as="geometry" />
        </mxCell>
        <mxCell id="3-fhFbrS2XwaX0FWGKN_-155" value="" style="edgeStyle=none;shape=connector;rounded=0;orthogonalLoop=1;jettySize=auto;html=1;labelBackgroundColor=default;strokeColor=default;align=center;verticalAlign=middle;fontFamily=Helvetica;fontSize=11;fontColor=default;endArrow=none;" edge="1" parent="3-fhFbrS2XwaX0FWGKN_-151" source="3-fhFbrS2XwaX0FWGKN_-154" target="3-fhFbrS2XwaX0FWGKN_-0">
          <mxGeometry relative="1" as="geometry" />
        </mxCell>
        <mxCell id="3-fhFbrS2XwaX0FWGKN_-154" value="借阅数" style="ellipse;whiteSpace=wrap;html=1;align=center;dashed=1;fontFamily=Helvetica;fontSize=11;fontColor=default;" vertex="1" parent="3-fhFbrS2XwaX0FWGKN_-151">
          <mxGeometry x="465" y="10" width="60" height="30" as="geometry" />
        </mxCell>
        <mxCell id="3-fhFbrS2XwaX0FWGKN_-130" value="" style="edgeStyle=none;shape=connector;rounded=0;orthogonalLoop=1;jettySize=auto;html=1;labelBackgroundColor=default;strokeColor=default;align=center;verticalAlign=middle;fontFamily=Helvetica;fontSize=11;fontColor=default;endArrow=none;" edge="1" parent="3-fhFbrS2XwaX0FWGKN_-157" source="3-fhFbrS2XwaX0FWGKN_-0" target="3-fhFbrS2XwaX0FWGKN_-127">
          <mxGeometry relative="1" as="geometry">
            <mxPoint x="533" y="643" as="targetPoint" />
            <mxPoint x="348" y="691" as="sourcePoint" />
          </mxGeometry>
        </mxCell>
        <mxCell id="3-fhFbrS2XwaX0FWGKN_-152" value="1" style="edgeLabel;html=1;align=center;verticalAlign=middle;resizable=0;points=[];fontSize=11;fontFamily=Helvetica;fontColor=default;" vertex="1" connectable="0" parent="3-fhFbrS2XwaX0FWGKN_-130">
          <mxGeometry x="0.5239" relative="1" as="geometry">
            <mxPoint x="19" y="-16" as="offset" />
          </mxGeometry>
        </mxCell>
        <mxCell id="3-fhFbrS2XwaX0FWGKN_-156" value="" style="group" vertex="1" connectable="0" parent="3-fhFbrS2XwaX0FWGKN_-157">
          <mxGeometry x="422.5" width="155" height="192" as="geometry" />
        </mxCell>
        <mxCell id="3-fhFbrS2XwaX0FWGKN_-135" value="借阅时间" style="ellipse;whiteSpace=wrap;html=1;align=center;fontFamily=Helvetica;fontSize=11;fontColor=default;" vertex="1" parent="3-fhFbrS2XwaX0FWGKN_-156">
          <mxGeometry width="70" height="30" as="geometry" />
        </mxCell>
        <mxCell id="3-fhFbrS2XwaX0FWGKN_-136" value="到期时间" style="ellipse;whiteSpace=wrap;html=1;align=center;fontFamily=Helvetica;fontSize=11;fontColor=default;" vertex="1" parent="3-fhFbrS2XwaX0FWGKN_-156">
          <mxGeometry x="85" width="70" height="30" as="geometry" />
        </mxCell>
        <mxCell id="3-fhFbrS2XwaX0FWGKN_-127" value="借阅" style="shape=rhombus;perimeter=rhombusPerimeter;whiteSpace=wrap;html=1;align=center;fontFamily=Helvetica;fontSize=11;fontColor=default;" vertex="1" parent="3-fhFbrS2XwaX0FWGKN_-156">
          <mxGeometry x="52.5" y="162" width="50" height="30" as="geometry" />
        </mxCell>
        <mxCell id="3-fhFbrS2XwaX0FWGKN_-145" value="" style="edgeStyle=none;shape=connector;rounded=0;orthogonalLoop=1;jettySize=auto;html=1;labelBackgroundColor=default;strokeColor=default;align=center;verticalAlign=middle;fontFamily=Helvetica;fontSize=11;fontColor=default;endArrow=none;" edge="1" parent="3-fhFbrS2XwaX0FWGKN_-156" source="3-fhFbrS2XwaX0FWGKN_-136" target="3-fhFbrS2XwaX0FWGKN_-127">
          <mxGeometry relative="1" as="geometry" />
        </mxCell>
        <mxCell id="3-fhFbrS2XwaX0FWGKN_-144" value="" style="edgeStyle=none;shape=connector;rounded=0;orthogonalLoop=1;jettySize=auto;html=1;labelBackgroundColor=default;strokeColor=default;align=center;verticalAlign=middle;fontFamily=Helvetica;fontSize=11;fontColor=default;endArrow=none;" edge="1" parent="3-fhFbrS2XwaX0FWGKN_-156" source="3-fhFbrS2XwaX0FWGKN_-135" target="3-fhFbrS2XwaX0FWGKN_-127">
          <mxGeometry relative="1" as="geometry" />
        </mxCell>
      </root>
    </mxGraphModel>
  </diagram>
</mxfile>
